# xmcd
#
# Track frame offsets: 
#        183
#        10288
#        18055
#        34260
#        40068
#        48643
#        55290
#        64615
#        78890
#        82100
#        91438
#        104823
#        112625
#        120835
#        129838
#        132155
#        134740
#        139870
#        162723
#
# Disc length: 2480 seconds
#
# Revision: 1
# Processed by: cddbd v1.5.2PL0 Copyright (c) Steve Scherf et al.
# Submitted via: ExactAudioCopy v0.90b4
#
DISCID=fe09ae13
DTITLE=Gabor G. Kristof - Le Cri Du Lezard
DYEAR=1990
DGENRE=Progressive Music
TTITLE0=Dans Le Ciel
TTITLE1=Generique
TTITLE2=Ardeche 106
TTITLE3=Mouche
TTITLE4=A L'Hotel
TTITLE5=Ballade De L'Estafette
TTITLE6=Trio
TTITLE7=Raton Gai
TTITLE8=Accordeon Russe
TTITLE9=L'Arbre Couche
TTITLE10=Sirenes
TTITLE11=Dans La Maison
TTITLE12=C-Ray
TTITLE13=Quatuor
TTITLE14=Radio-Cassette
TTITLE15=Mere Lucas
TTITLE16=Classylon
TTITLE17=Generique De Fin
TTITLE18=Folie
EXTD=YEAR: 1990
EXTT0=
EXTT1=
EXTT2=
EXTT3=
EXTT4=
EXTT5=
EXTT6=
EXTT7=
EXTT8=
EXTT9=
EXTT10=
EXTT11=
EXTT12=
EXTT13=
EXTT14=
EXTT15=
EXTT16=
EXTT17=
EXTT18=
PLAYORDER=
